<?xml version="1.0" encoding="UTF-8" standalone="no"?>
<!DOCTYPE svg PUBLIC "-//W3C//DTD SVG 1.1//EN" "http://www.w3.org/Graphics/SVG/1.1/DTD/svg11.dtd">
<svg width="100%" height="100%" viewBox="0 0 1328 334" version="1.1" xmlns="http://www.w3.org/2000/svg" xmlns:xlink="http://www.w3.org/1999/xlink" xml:space="preserve" xmlns:serif="http://www.serif.com/" style="fill-rule:evenodd;clip-rule:evenodd;stroke-linejoin:round;stroke-miterlimit:2;">
    <g transform="matrix(3.125,0,0,3.125,0,0)">
        <g id="Calque-1" serif:id="Calque 1" transform="matrix(1,0,0,1,-37.4014,-37.3996)">
            <g transform="matrix(1,0,0,1,121.774,130.655)">
                <path d="M0,-79.83C29.378,-79.83 57.562,-77.808 82.375,-74.014C83.135,-73.898 83.815,-74.5 83.815,-75.289L83.815,-81.457C83.815,-85.476 81.163,-87.699 78.648,-88.116C54.585,-91.473 27.785,-93.255 0,-93.255C-26.435,-93.255 -52.52,-91.639 -75.771,-88.591C-78.122,-88.234 -84.369,-86.776 -84.369,-80.067L-84.369,0.608C-84.369,0.608 -84.756,7.416 -77.411,8.544C-53.75,11.733 -27.058,13.425 0,13.425C27.918,13.425 54.842,11.624 78.994,8.234C82.773,7.695 83.815,4.179 83.815,2.918L83.815,-4.54C83.815,-5.33 83.135,-5.933 82.373,-5.815C57.56,-2.021 29.378,0.001 0,0.001C-23.522,0.001 -46.27,-1.296 -67.144,-3.761C-69.856,-3.995 -69.77,-6.301 -69.77,-6.301L-69.77,-73.664C-69.77,-75.438 -68.08,-75.914 -67.413,-76.033L-67.412,-76.033C-67.247,-76.062 -67.144,-76.07 -67.144,-76.07C-46.27,-78.536 -23.522,-79.83 0,-79.83" style="fill:white;fill-rule:nonzero;"/>
            </g>
            <g transform="matrix(1,0,0,1,0,-0.005)">
                <rect x="57.596" y="62.937" width="6.713" height="55.616" style="fill:white;fill-opacity:0.4;"/>
            </g>
            <g transform="matrix(1,0,0,1,0,-0.005)">
                <rect x="70.698" y="62.937" width="11.193" height="55.616" style="fill:white;fill-opacity:0.5;"/>
            </g>
            <g transform="matrix(1,0,0,1,0,-0.005)">
                <rect x="88.28" y="62.937" width="13.43" height="55.616" style="fill:white;fill-opacity:0.6;"/>
            </g>
            <g transform="matrix(1,0,0,1,0,-0.005)">
                <rect x="108.099" y="62.937" width="15.668" height="55.616" style="fill:white;fill-opacity:0.7;"/>
            </g>
            <g transform="matrix(1,0,0,1,0,-0.005)">
                <rect x="130.156" y="62.937" width="17.906" height="55.616" style="fill:white;fill-opacity:0.8;"/>
            </g>
            <g transform="matrix(1,0,0,1,172.816,75.3974)">
                <path d="M0,30.685L1.778,30.077L1.778,16.636L-4.172,15.867C-4.755,15.797 -4.757,14.882 -4.174,14.81L1.778,14.029L1.778,0.609L0,0.001C-0.562,-0.178 -0.418,-1.077 0.167,-1.041L1.778,-0.943L1.778,-12.465L-18.365,-12.465L-18.365,43.15L1.778,43.15L1.778,31.627L0.167,31.726C-0.418,31.761 -0.562,30.862 0,30.685" style="fill:white;fill-opacity:0.9;fill-rule:nonzero;"/>
            </g>
            <g transform="matrix(0,-1,-1,0,197.658,54.9932)">
                <path d="M-13.162,-7.939L-7.939,-7.939L-7.939,13.162L-12.124,-6.779C-12.332,-7.691 -12.854,-7.897 -13.162,-7.939" style="fill:white;fill-opacity:0.95;fill-rule:nonzero;"/>
            </g>
            <g transform="matrix(1,0,0,1,203.524,63.4793)">
                <path d="M0,12.17L0,12.013C0,11.815 -0.102,11.633 -0.265,11.542L-20.474,0.211C-20.77,0.044 -20.795,-0.308 -20.655,-0.547L-22.541,-0.547L-22.541,11.363L-0.519,12.7C-0.237,12.717 0,12.474 0,12.17" style="fill:white;fill-opacity:0.95;fill-rule:nonzero;"/>
            </g>
            <g transform="matrix(-0.978655,0.205508,0.205508,0.978655,186.185,119.445)">
                <path d="M-18.906,-1.224L1.468,-1.224L-19.181,3.112L-20.247,-1.964C-20.146,-1.676 -19.851,-1.23 -18.906,-1.224" style="fill:white;fill-opacity:0.95;fill-rule:nonzero;"/>
            </g>
            <g transform="matrix(1,0,0,1,200.687,80.7784)">
                <path d="M0,5.224C0.249,5.194 0.438,4.966 0.438,4.697C0.438,4.46 0.293,4.252 0.083,4.185L-19.704,-2.586L-19.704,7.81L0,5.224Z" style="fill:white;fill-opacity:0.95;fill-rule:nonzero;"/>
            </g>
            <g transform="matrix(1,0,0,1,200.77,99.6315)">
                <path d="M0,-3.116C0.21,-3.182 0.355,-3.389 0.355,-3.626L0.355,-3.696C0.355,-3.967 0.166,-4.195 -0.083,-4.225L-19.787,-6.772L-19.787,3.656L0,-3.116Z" style="fill:white;fill-opacity:0.95;fill-rule:nonzero;"/>
            </g>
            <g transform="matrix(1,0,0,1,183.051,106.042)">
                <path d="M0,11.747L20.208,0.416C20.371,0.325 20.473,0.144 20.473,-0.055L20.473,-0.211C20.473,-0.516 20.235,-0.759 19.953,-0.742L-2.068,0.595L-2.068,12.506L-0.183,12.506C-0.321,12.266 -0.297,11.914 0,11.747" style="fill:white;fill-opacity:0.95;fill-rule:nonzero;"/>
            </g>
            <g transform="matrix(1,0,0,1,0,93.114)">
                <path d="M230.737,43.818L237.734,43.818L237.734,45.484L230.737,45.484L230.737,43.818ZM230.93,50.97L228.992,50.97L228.992,37.401L238.569,37.401L238.569,39.088L230.93,39.088L230.93,50.97Z" style="fill:white;fill-opacity:0.9;fill-rule:nonzero;"/>
            </g>
            <g transform="matrix(1,0,0,1,247.271,131.931)">
                <path d="M0,10.429C0.749,10.429 1.445,10.3 2.084,10.041C2.725,9.783 3.279,9.418 3.751,8.947C4.223,8.475 4.591,7.921 4.855,7.288C5.12,6.656 5.253,5.963 5.253,5.214C5.253,4.465 5.12,3.777 4.855,3.151C4.591,2.523 4.223,1.971 3.751,1.492C3.279,1.015 2.725,0.646 2.084,0.387C1.445,0.13 0.749,0 0,0C-0.762,0 -1.462,0.13 -2.103,0.387C-2.743,0.646 -3.302,1.015 -3.779,1.492C-4.257,1.971 -4.63,2.523 -4.893,3.151C-5.158,3.777 -5.29,4.465 -5.29,5.214C-5.29,5.963 -5.158,6.656 -4.893,7.288C-4.63,7.921 -4.257,8.475 -3.779,8.947C-3.302,9.418 -2.743,9.783 -2.103,10.041C-1.462,10.3 -0.762,10.429 0,10.429M0,12.154C-1.033,12.154 -1.992,11.98 -2.879,11.631C-3.764,11.281 -4.528,10.793 -5.176,10.167C-5.82,9.541 -6.325,8.808 -6.687,7.967C-7.05,7.127 -7.229,6.209 -7.229,5.214C-7.229,4.219 -7.05,3.302 -6.687,2.461C-6.325,1.622 -5.82,0.889 -5.176,0.263C-4.528,-0.365 -3.767,-0.852 -2.888,-1.201C-2.01,-1.55 -1.046,-1.725 0,-1.725C1.035,-1.725 1.991,-1.553 2.869,-1.211C3.748,-0.869 4.51,-0.384 5.157,0.242C5.802,0.869 6.304,1.607 6.658,2.452C7.014,3.299 7.191,4.219 7.191,5.214C7.191,6.222 7.014,7.147 6.658,7.986C6.304,8.826 5.802,9.56 5.157,10.186C4.51,10.814 3.748,11.298 2.869,11.641C1.991,11.983 1.035,12.154 0,12.154" style="fill:white;fill-opacity:0.9;fill-rule:nonzero;"/>
            </g>
            <g transform="matrix(1,0,0,1,266.498,130.515)">
                <path d="M0,13.569L-3.45,8.645L-1.376,8.645L2.112,13.569L0,13.569ZM-7.133,8.742L-8.006,7.792L-3.838,7.792C-2.599,7.792 -1.658,7.524 -1.018,6.988C-0.379,6.451 -0.059,5.699 -0.059,4.73C-0.059,3.76 -0.379,3.01 -1.018,2.481C-1.658,1.951 -2.599,1.686 -3.838,1.686L-8.006,1.686L-7.133,0.717L-7.133,8.742ZM-9.072,13.569L-9.072,0L-3.779,0C-2.592,0 -1.577,0.187 -0.737,0.563C0.103,0.936 0.749,1.481 1.202,2.191C1.654,2.902 1.88,3.748 1.88,4.73C1.88,5.712 1.654,6.555 1.202,7.258C0.749,7.964 0.103,8.504 -0.737,8.878C-1.577,9.253 -2.592,9.44 -3.779,9.44L-8.006,9.44L-7.133,8.548L-7.133,13.569L-9.072,13.569Z" style="fill:white;fill-opacity:0.9;fill-rule:nonzero;"/>
            </g>
            <g transform="matrix(1,0,0,1,271.519,130.515)">
                <path d="M0,13.569L0,0L1.59,0L7.676,10.255L6.824,10.255L12.833,0L14.423,0L14.441,13.569L12.58,13.569L12.562,2.927L13.006,2.927L7.657,11.922L6.766,11.922L1.377,2.927L1.861,2.927L1.861,13.569L0,13.569Z" style="fill:white;fill-opacity:0.9;fill-rule:nonzero;"/>
            </g>
            <g transform="matrix(1,0,0,1,290.593,133.907)">
                <path d="M0,6.786L0.522,5.235L8.16,5.235L8.722,6.786L0,6.786ZM-2.617,10.178L3.527,-3.392L5.447,-3.392L11.61,10.178L9.575,10.178L4.089,-2.305L4.865,-2.305L-0.621,10.178L-2.617,10.178Z" style="fill:white;fill-opacity:0.9;fill-rule:nonzero;"/>
            </g>
            <g transform="matrix(1,0,0,1,306.234,130.515)">
                <path d="M0,13.569L0,1.686L-4.652,1.686L-4.652,0L6.571,0L6.571,1.686L1.919,1.686L1.919,13.569L0,13.569Z" style="fill:white;fill-opacity:0.9;fill-rule:nonzero;"/>
            </g>
            <g transform="matrix(1,0,0,1,0,93.114)">
                <rect x="314.917" y="37.401" width="1.938" height="13.569" style="fill:white;fill-opacity:0.9;"/>
            </g>
            <g transform="matrix(1,0,0,1,327.052,131.931)">
                <path d="M0,10.429C0.749,10.429 1.445,10.3 2.084,10.041C2.725,9.783 3.279,9.418 3.751,8.947C4.223,8.475 4.591,7.921 4.855,7.288C5.12,6.656 5.253,5.963 5.253,5.214C5.253,4.465 5.12,3.777 4.855,3.151C4.591,2.523 4.223,1.971 3.751,1.492C3.279,1.015 2.725,0.646 2.084,0.387C1.445,0.13 0.749,0 0,0C-0.762,0 -1.462,0.13 -2.103,0.387C-2.743,0.646 -3.302,1.015 -3.779,1.492C-4.258,1.971 -4.63,2.523 -4.893,3.151C-5.158,3.777 -5.291,4.465 -5.291,5.214C-5.291,5.963 -5.158,6.656 -4.893,7.288C-4.63,7.921 -4.258,8.475 -3.779,8.947C-3.302,9.418 -2.743,9.783 -2.103,10.041C-1.462,10.3 -0.762,10.429 0,10.429M0,12.154C-1.033,12.154 -1.992,11.98 -2.879,11.631C-3.764,11.281 -4.528,10.793 -5.176,10.167C-5.82,9.541 -6.325,8.808 -6.687,7.967C-7.05,7.127 -7.229,6.209 -7.229,5.214C-7.229,4.219 -7.05,3.302 -6.687,2.461C-6.325,1.622 -5.82,0.889 -5.176,0.263C-4.528,-0.365 -3.767,-0.852 -2.888,-1.201C-2.01,-1.55 -1.046,-1.725 0,-1.725C1.035,-1.725 1.991,-1.553 2.869,-1.211C3.748,-0.869 4.51,-0.384 5.156,0.242C5.802,0.869 6.304,1.607 6.658,2.452C7.014,3.299 7.191,4.219 7.191,5.214C7.191,6.222 7.014,7.147 6.658,7.986C6.304,8.826 5.802,9.56 5.156,10.186C4.51,10.814 3.748,11.298 2.869,11.641C1.991,11.983 1.035,12.154 0,12.154" style="fill:white;fill-opacity:0.9;fill-rule:nonzero;"/>
            </g>
            <g transform="matrix(1,0,0,1,337.207,130.515)">
                <path d="M0,13.569L0,0L1.59,0L10.564,11.145L9.731,11.145L9.731,0L11.67,0L11.67,13.569L10.08,13.569L1.106,2.423L1.938,2.423L1.938,13.569L0,13.569Z" style="fill:white;fill-opacity:0.9;fill-rule:nonzero;"/>
            </g>
            <g transform="matrix(1,0,0,1,364.229,130.205)">
                <path d="M0,13.879C-1.033,13.879 -1.986,13.708 -2.858,13.366C-3.73,13.024 -4.486,12.539 -5.127,11.911C-5.766,11.285 -6.268,10.552 -6.628,9.711C-6.991,8.872 -7.171,7.947 -7.171,6.94C-7.171,5.932 -6.991,5.009 -6.628,4.168C-6.268,3.329 -5.763,2.595 -5.117,1.968C-4.471,1.341 -3.712,0.857 -2.84,0.515C-1.967,0.172 -1.015,0 0.021,0C1.066,0 2.033,0.179 2.918,0.533C3.803,0.889 4.556,1.415 5.176,2.112L3.917,3.335C3.399,2.792 2.817,2.389 2.172,2.123C1.525,1.858 0.834,1.726 0.098,1.726C-0.666,1.726 -1.372,1.856 -2.025,2.112C-2.677,2.371 -3.243,2.734 -3.721,3.199C-4.199,3.665 -4.571,4.217 -4.835,4.856C-5.1,5.496 -5.232,6.191 -5.232,6.94C-5.232,7.689 -5.1,8.385 -4.835,9.024C-4.571,9.664 -4.199,10.216 -3.721,10.681C-3.243,11.147 -2.677,11.508 -2.025,11.767C-1.372,12.025 -0.666,12.154 0.098,12.154C0.834,12.154 1.525,12.022 2.172,11.757C2.817,11.492 3.399,11.082 3.917,10.525L5.176,11.747C4.556,12.444 3.803,12.975 2.918,13.336C2.033,13.698 1.06,13.879 0,13.879" style="fill:white;fill-opacity:0.9;fill-rule:nonzero;"/>
            </g>
            <g transform="matrix(1,0,0,1,378.011,131.931)">
                <path d="M0,10.429C0.749,10.429 1.444,10.3 2.083,10.041C2.724,9.783 3.279,9.418 3.751,8.947C4.223,8.475 4.59,7.921 4.854,7.288C5.12,6.656 5.253,5.963 5.253,5.214C5.253,4.465 5.12,3.777 4.854,3.151C4.59,2.523 4.223,1.971 3.751,1.492C3.279,1.015 2.724,0.646 2.083,0.387C1.444,0.13 0.749,0 0,0C-0.763,0 -1.463,0.13 -2.104,0.387C-2.743,0.646 -3.302,1.015 -3.78,1.492C-4.258,1.971 -4.63,2.523 -4.894,3.151C-5.158,3.777 -5.291,4.465 -5.291,5.214C-5.291,5.963 -5.158,6.656 -4.894,7.288C-4.63,7.921 -4.258,8.475 -3.78,8.947C-3.302,9.418 -2.743,9.783 -2.104,10.041C-1.463,10.3 -0.763,10.429 0,10.429M0,12.154C-1.033,12.154 -1.992,11.98 -2.879,11.631C-3.764,11.281 -4.529,10.793 -5.176,10.167C-5.821,9.541 -6.326,8.808 -6.687,7.967C-7.05,7.127 -7.229,6.209 -7.229,5.214C-7.229,4.219 -7.05,3.302 -6.687,2.461C-6.326,1.622 -5.821,0.889 -5.176,0.263C-4.529,-0.365 -3.768,-0.852 -2.889,-1.201C-2.01,-1.55 -1.046,-1.725 0,-1.725C1.034,-1.725 1.99,-1.553 2.869,-1.211C3.748,-0.869 4.51,-0.384 5.156,0.242C5.802,0.869 6.303,1.607 6.658,2.452C7.013,3.299 7.191,4.219 7.191,5.214C7.191,6.222 7.013,7.147 6.658,7.986C6.303,8.826 5.802,9.56 5.156,10.186C4.51,10.814 3.748,11.298 2.869,11.641C1.99,11.983 1.034,12.154 0,12.154" style="fill:white;fill-opacity:0.9;fill-rule:nonzero;"/>
            </g>
            <g transform="matrix(1,0,0,1,388.166,130.515)">
                <path d="M0,13.569L0,0L1.59,0L10.563,11.145L9.73,11.145L9.73,0L11.67,0L11.67,13.569L10.079,13.569L1.105,2.423L1.938,2.423L1.938,13.569L0,13.569Z" style="fill:white;fill-opacity:0.9;fill-rule:nonzero;"/>
            </g>
            <g transform="matrix(1,0,0,1,406.6,130.515)">
                <path d="M0,13.569L0,1.686L-4.651,1.686L-4.651,0L6.571,0L6.571,1.686L1.92,1.686L1.92,13.569L0,13.569Z" style="fill:white;fill-opacity:0.9;fill-rule:nonzero;"/>
            </g>
            <g transform="matrix(1,0,0,1,0,93.114)">
                <rect x="415.284" y="37.401" width="1.938" height="13.569" style="fill:white;fill-opacity:0.9;"/>
            </g>
            <g transform="matrix(1,0,0,1,421.292,130.515)">
                <path d="M0,13.569L0,0L1.59,0L10.563,11.145L9.73,11.145L9.73,0L11.669,0L11.669,13.569L10.079,13.569L1.105,2.423L1.938,2.423L1.938,13.569L0,13.569Z" style="fill:white;fill-opacity:0.9;fill-rule:nonzero;"/>
            </g>
            <g transform="matrix(1,0,0,1,442.654,130.36)">
                <path d="M0,13.724C-1.784,13.724 -3.187,13.214 -4.207,12.194C-5.228,11.173 -5.737,9.679 -5.737,7.715L-5.737,0L-3.8,0L-3.8,7.638C-3.8,9.149 -3.468,10.255 -2.802,10.952C-2.136,11.649 -1.196,11.999 0.019,11.999C1.246,11.999 2.192,11.649 2.858,10.952C3.523,10.255 3.856,9.149 3.856,7.638L3.856,0L5.737,0L5.737,7.715C5.737,9.679 5.229,11.173 4.215,12.194C3.2,13.214 1.795,13.724 0,13.724" style="fill:white;fill-opacity:0.9;fill-rule:nonzero;"/>
            </g>
            <g transform="matrix(1,0,0,1,0,93.114)">
                <path d="M454.127,43.255L461.106,43.255L461.106,44.903L454.127,44.903L454.127,43.255ZM454.303,49.284L462.212,49.284L462.212,50.97L452.364,50.97L452.364,37.401L461.941,37.401L461.941,39.088L454.303,39.088L454.303,49.284Z" style="fill:white;fill-opacity:0.9;fill-rule:nonzero;"/>
            </g>
            <g transform="matrix(1,0,0,1,261.583,77.1971)">
                <path d="M0,27.085C3.184,23.901 4.779,19.414 4.779,13.624C4.779,7.833 3.184,3.301 0,0.039C-3.19,-3.229 -7.703,-4.863 -13.546,-4.863L-21.438,-4.863L-21.438,31.871L-13.546,31.871C-7.703,31.871 -3.19,30.275 0,27.085M2.27,-10.842C6.705,-8.553 10.128,-5.304 12.547,-1.076C14.966,3.145 16.172,8.047 16.172,13.624C16.172,19.2 14.966,24.076 12.547,28.246C10.128,32.415 6.705,35.638 2.27,37.927C-2.166,40.21 -7.308,41.351 -13.15,41.351L-32.59,41.351L-32.59,-14.266L-13.15,-14.266C-7.308,-14.266 -2.166,-13.124 2.27,-10.842" style="fill:white;fill-rule:nonzero;"/>
            </g>
            <g transform="matrix(1,0,0,1,315.598,99.9057)">
                <path d="M0,-8.294C-0.053,-11.16 -1.09,-13.455 -3.106,-15.187C-5.123,-16.912 -7.594,-17.774 -10.518,-17.774C-13.28,-17.774 -15.602,-16.938 -17.488,-15.264C-19.376,-13.591 -20.529,-11.264 -20.951,-8.294L0,-8.294ZM11.237,-0.804L-21.035,-0.804C-20.77,2.386 -19.654,4.882 -17.689,6.685C-15.725,8.494 -13.307,9.395 -10.434,9.395C-6.29,9.395 -3.347,7.619 -1.589,4.059L10.439,4.059C9.168,8.306 6.724,11.801 3.112,14.538C-0.506,17.274 -4.935,18.642 -10.193,18.642C-14.447,18.642 -18.26,17.695 -21.632,15.809C-25.004,13.928 -27.637,11.256 -29.517,7.8C-31.404,4.351 -32.344,0.369 -32.344,-4.15C-32.344,-8.715 -31.417,-12.729 -29.556,-16.179C-27.701,-19.635 -25.095,-22.287 -21.749,-24.148C-18.403,-26.009 -14.551,-26.936 -10.193,-26.936C-5.998,-26.936 -2.244,-26.035 1.076,-24.226C4.396,-22.423 6.977,-19.856 8.806,-16.542C10.641,-13.215 11.555,-9.409 11.555,-5.104C11.555,-3.508 11.451,-2.075 11.237,-0.804" style="fill:white;fill-rule:nonzero;"/>
            </g>
            <g transform="matrix(1,0,0,1,353.687,84.6809)">
                <path d="M0,23.589L11.159,-10.278L23.032,-10.278L6.698,33.867L-6.848,33.867L-23.104,-10.278L-11.153,-10.278L0,23.589Z" style="fill:white;fill-rule:nonzero;"/>
            </g>
            <g transform="matrix(1,0,0,1,394.162,71.777)">
                <path d="M0,37.926L18.325,37.926L18.325,46.771L-11.153,46.771L-11.153,-8.845L0,-8.845L0,37.926Z" style="fill:white;fill-rule:nonzero;"/>
            </g>
            <g transform="matrix(1,0,0,1,444.882,84.1675)">
                <path d="M0,23.182C1.783,22.203 3.203,20.724 4.267,18.76C5.323,16.795 5.855,14.409 5.855,11.588C5.855,7.392 4.753,4.17 2.555,1.907C0.344,-0.35 -2.348,-1.478 -5.538,-1.478C-8.722,-1.478 -11.394,-0.35 -13.546,1.907C-15.692,4.17 -16.769,7.392 -16.769,11.588C-16.769,15.783 -15.725,19.013 -13.624,21.269C-11.522,23.532 -8.884,24.654 -5.693,24.654C-3.677,24.654 -1.777,24.167 0,23.182M-17.171,31.547C-20.568,29.666 -23.24,26.995 -25.179,23.538C-27.117,20.089 -28.084,16.107 -28.084,11.588C-28.084,7.075 -27.092,3.094 -25.095,-0.363C-23.104,-3.813 -20.381,-6.484 -16.931,-8.371C-13.475,-10.258 -9.63,-11.198 -5.376,-11.198C-1.129,-11.198 2.724,-10.258 6.18,-8.371C9.629,-6.484 12.353,-3.813 14.343,-0.363C16.334,3.094 17.332,7.075 17.332,11.588C17.332,16.107 16.308,20.089 14.266,23.538C12.216,26.995 9.454,29.666 5.979,31.547C2.496,33.433 -1.395,34.38 -5.693,34.38C-9.947,34.38 -13.772,33.433 -17.171,31.547" style="fill:white;fill-rule:nonzero;"/>
            </g>
        </g>
    </g>
</svg>
